<svg width="250" height="252" viewBox="0 0 250 252" fill="none" xmlns="http://www.w3.org/2000/svg">
<path d="M103.687 201.941C88.3841 189.857 74.6724 175.17 63.8923 159.308C62.2867 156.943 60.674 154.441 59.0828 151.839H83.5961C89.5452 160.061 96.2972 167.823 103.687 174.919V201.941Z" fill="#212121"/>
<path d="M188.158 109.514C190.158 103.909 191.835 98.3544 193.147 92.9787L193.448 91.7673L146.019 68.0496V45.2637L216.484 80.4926L215.058 88.0545C213.718 95.1935 211.904 102.411 209.675 109.514H188.165H188.158Z" fill="#212121"/>
<path d="M7.26082 109.514C3.9207 96.8994 1.69156 84.0335 0.63792 71.2536C0.63792 71.2536 0.523238 69.9777 0.501735 69.6122L0 62.8029L103.687 10.9594V33.7453L21.4528 74.8589L21.5746 75.9484C22.872 87.3091 25.1298 98.5838 28.305 109.507H7.26082V109.514Z" fill="#212121"/>
<path d="M120.13 249.62C118.065 248.56 115.951 247.434 113.858 246.266C111.493 244.954 109.02 243.506 106.074 241.714C79.1666 225.315 55.6137 202.909 37.9598 176.926C32.1397 168.361 26.8285 159.158 22.1695 149.582C20.9008 146.98 19.6895 144.364 18.5642 141.797C15.5036 134.831 12.7871 127.67 10.4719 120.481H43.6366L42.8625 118.374C41.9235 115.808 41.0276 113.191 40.2033 110.604C37.9312 103.458 36.0604 96.1324 34.6556 88.8501L33.1934 81.2596L114.661 40.5259V5.46891L125.606 0L249.585 61.9858L249.111 68.7735C249.054 69.5978 248.99 70.4221 248.918 71.2464C247.836 84.4205 245.499 97.6806 241.987 110.668C241.241 113.428 240.503 115.98 239.736 118.452C237.392 126 234.59 133.533 231.415 140.866H196.687L196.243 141.697C194.881 144.27 193.419 146.887 191.892 149.474C189.842 152.943 187.749 156.255 185.671 159.308C174.181 176.224 159.989 191.19 143.496 203.783C140.966 205.719 138.35 207.611 135.719 209.417L135.038 209.883V246.624C133.117 247.678 131.24 248.681 129.426 249.613L124.774 252L120.123 249.613L120.13 249.62ZM41.5078 143.138C42.8267 145.768 44.2387 148.428 45.7009 151.037C60.2154 176.983 79.9407 198.924 104.347 216.255C106.891 218.061 109.55 219.853 112.245 221.581L114.661 223.129V184.631C117.7 187.097 120.796 189.434 123.878 191.598L124.781 192.229L125.685 191.598C129.727 188.76 133.741 185.656 137.626 182.388C140.113 180.288 142.701 177.951 145.539 175.242C153.259 167.866 160.29 159.774 166.44 151.18L167.171 150.169C167.73 149.402 168.282 148.635 168.82 147.854C169.78 146.442 170.69 144.994 171.608 143.554L171.787 143.267C176.338 136.063 180.395 128.401 183.836 120.481H217.703L218.068 119.427C219.058 116.596 219.896 114.009 220.649 111.529C224.225 99.6948 226.727 87.4596 228.082 75.1599L228.203 74.0776L135.038 27.5022V62.552L125.606 57.8357L56.2875 92.4913L56.5885 93.7098C58.0292 99.5012 59.9072 105.522 62.165 111.622C63.1684 114.324 64.2292 116.983 65.3187 119.535C68.4797 126.925 72.1638 134.085 76.2852 140.866H40.3682L41.5078 143.138Z" fill="#212121"/>
<path d="M146.012 215.674C169.794 198.623 189.089 177.148 203.396 151.832H226.275C221.889 160.598 216.957 169.027 211.596 176.919C194.501 202.084 171.866 223.888 146.012 240.138V215.667V215.674Z" fill="#212121"/>
<path fill-rule="evenodd" clip-rule="evenodd" d="M104.311 118.875V85.553H90.4414V118.875C90.4414 137.282 105.357 152.198 123.764 152.198C128.193 152.198 132.422 151.33 136.286 149.768V133.77C132.903 136.615 128.53 138.336 123.764 138.336C113.019 138.336 104.311 129.627 104.311 118.883" fill="#212121"/>
<mask id="mask0_1413_61" style="mask-type:luminance" maskUnits="userSpaceOnUse" x="90" y="85" width="47" height="68">
<path d="M104.311 118.875V85.553H90.4414V118.875C90.4414 137.282 105.357 152.198 123.764 152.198C128.193 152.198 132.422 151.33 136.286 149.768V133.77C132.903 136.615 128.53 138.336 123.764 138.336C113.019 138.336 104.311 129.627 104.311 118.883" fill="white"/>
</mask>
<g mask="url(#mask0_1413_61)">
<path d="M136.286 85.553H90.4414V152.198H136.286V85.553Z" fill="#212121"/>
</g>
<path fill-rule="evenodd" clip-rule="evenodd" d="M110.059 118.875C110.059 126.444 116.195 132.58 123.764 132.58C131.333 132.58 137.468 126.444 137.468 118.875C137.468 111.306 131.333 105.171 123.764 105.171C116.195 105.171 110.059 111.306 110.059 118.875Z" fill="#212121"/>
<mask id="mask1_1413_61" style="mask-type:luminance" maskUnits="userSpaceOnUse" x="110" y="105" width="28" height="28">
<path d="M110.059 118.875C110.059 126.444 116.195 132.58 123.764 132.58C131.333 132.58 137.468 126.444 137.468 118.875C137.468 111.306 131.333 105.171 123.764 105.171C116.195 105.171 110.059 111.306 110.059 118.875Z" fill="white"/>
</mask>
<g mask="url(#mask1_1413_61)">
<path d="M137.468 105.171H110.059V132.58H137.468V105.171Z" fill="#212121"/>
</g>
<path fill-rule="evenodd" clip-rule="evenodd" d="M143.224 118.875V152.198H157.093V118.875C157.093 100.469 142.177 85.553 123.771 85.553C119.341 85.553 115.112 86.4203 111.249 87.9828V103.981C114.632 101.135 119.004 99.4152 123.771 99.4152C134.515 99.4152 143.224 108.124 143.224 118.868" fill="#212121"/>
<mask id="mask2_1413_61" style="mask-type:luminance" maskUnits="userSpaceOnUse" x="111" y="85" width="47" height="68">
<path d="M143.224 118.875V152.198H157.093V118.875C157.093 100.469 142.177 85.553 123.771 85.553C119.341 85.553 115.112 86.4203 111.249 87.9828V103.981C114.632 101.135 119.004 99.4152 123.771 99.4152C134.515 99.4152 143.224 108.124 143.224 118.868" fill="white"/>
</mask>
<g mask="url(#mask2_1413_61)">
<path d="M157.086 85.553H111.242V152.198H157.086V85.553Z" fill="#212121"/>
</g>
</svg>
