<svg width="980" height="265" viewBox="0 0 980 265" fill="none" xmlns="http://www.w3.org/2000/svg">
<path d="M103.687 210.941C88.3841 198.857 74.6724 184.17 63.8923 168.308C62.2867 165.943 60.674 163.441 59.0828 160.839H83.5961C89.5452 169.061 96.2972 176.823 103.687 183.919V210.941Z" fill="#212121"/>
<path d="M188.158 118.514C190.158 112.909 191.835 107.354 193.147 101.979L193.448 100.767L146.019 77.0496V54.2637L216.484 89.4926L215.058 97.0545C213.718 104.193 211.904 111.411 209.675 118.514H188.165H188.158Z" fill="#212121"/>
<path d="M7.26082 118.514C3.9207 105.899 1.69156 93.0335 0.63792 80.2536C0.63792 80.2536 0.523238 78.9777 0.501735 78.6122L0 71.8029L103.687 19.9594V42.7453L21.4528 83.8589L21.5746 84.9484C22.872 96.3091 25.1298 107.584 28.305 118.507H7.26082V118.514Z" fill="#212121"/>
<path d="M120.13 258.62C118.065 257.56 115.951 256.434 113.858 255.266C111.493 253.954 109.02 252.506 106.074 250.714C79.1666 234.315 55.6137 211.909 37.9598 185.926C32.1397 177.361 26.8285 168.158 22.1695 158.582C20.9008 155.98 19.6895 153.364 18.5642 150.797C15.5036 143.831 12.7871 136.67 10.4719 129.481H43.6366L42.8625 127.374C41.9235 124.808 41.0276 122.191 40.2033 119.604C37.9312 112.458 36.0604 105.132 34.6556 97.8501L33.1934 90.2596L114.661 49.5259V14.4689L125.606 9L249.585 70.9858L249.111 77.7735C249.054 78.5978 248.99 79.4221 248.918 80.2464C247.836 93.4205 245.499 106.681 241.987 119.668C241.241 122.428 240.503 124.98 239.736 127.452C237.392 135 234.59 142.533 231.415 149.866H196.687L196.243 150.697C194.881 153.27 193.419 155.887 191.892 158.474C189.842 161.943 187.749 165.255 185.671 168.308C174.181 185.224 159.989 200.19 143.496 212.783C140.966 214.719 138.35 216.611 135.719 218.417L135.038 218.883V255.624C133.117 256.678 131.24 257.681 129.426 258.613L124.774 261L120.123 258.613L120.13 258.62ZM41.5078 152.138C42.8267 154.768 44.2387 157.428 45.7009 160.037C60.2154 185.983 79.9407 207.924 104.347 225.255C106.891 227.061 109.55 228.853 112.245 230.581L114.661 232.129V193.631C117.7 196.097 120.796 198.434 123.878 200.598L124.781 201.229L125.685 200.598C129.727 197.76 133.741 194.656 137.626 191.388C140.113 189.288 142.701 186.951 145.539 184.242C153.259 176.866 160.29 168.774 166.44 160.18L167.171 159.169C167.73 158.402 168.282 157.635 168.82 156.854C169.78 155.442 170.69 153.994 171.608 152.554L171.787 152.267C176.338 145.063 180.395 137.401 183.836 129.481H217.703L218.068 128.427C219.058 125.596 219.896 123.009 220.649 120.529C224.225 108.695 226.727 96.4596 228.082 84.1599L228.203 83.0776L135.038 36.5022V71.552L125.606 66.8357L56.2875 101.491L56.5885 102.71C58.0292 108.501 59.9072 114.522 62.165 120.622C63.1684 123.324 64.2292 125.983 65.3187 128.535C68.4797 135.925 72.1638 143.085 76.2852 149.866H40.3682L41.5078 152.138Z" fill="#212121"/>
<path d="M146.012 224.674C169.794 207.623 189.089 186.148 203.396 160.832H226.275C221.889 169.598 216.957 178.027 211.596 185.919C194.501 211.084 171.866 232.888 146.012 249.138V224.667V224.674Z" fill="#212121"/>
<path fill-rule="evenodd" clip-rule="evenodd" d="M104.311 127.875V94.553H90.4414V127.875C90.4414 146.282 105.357 161.198 123.764 161.198C128.193 161.198 132.422 160.33 136.286 158.768V142.77C132.903 145.615 128.53 147.336 123.764 147.336C113.019 147.336 104.311 138.627 104.311 127.883" fill="#212121"/>
<mask id="mask0_1441_62" style="mask-type:luminance" maskUnits="userSpaceOnUse" x="90" y="94" width="47" height="68">
<path d="M104.311 127.875V94.553H90.4414V127.875C90.4414 146.282 105.357 161.198 123.764 161.198C128.193 161.198 132.422 160.33 136.286 158.768V142.77C132.903 145.615 128.53 147.336 123.764 147.336C113.019 147.336 104.311 138.627 104.311 127.883" fill="white"/>
</mask>
<g mask="url(#mask0_1441_62)">
<path d="M136.286 94.553H90.4414V161.198H136.286V94.553Z" fill="#212121"/>
</g>
<path fill-rule="evenodd" clip-rule="evenodd" d="M110.059 127.875C110.059 135.444 116.195 141.58 123.764 141.58C131.333 141.58 137.468 135.444 137.468 127.875C137.468 120.306 131.333 114.171 123.764 114.171C116.195 114.171 110.059 120.306 110.059 127.875Z" fill="#212121"/>
<mask id="mask1_1441_62" style="mask-type:luminance" maskUnits="userSpaceOnUse" x="110" y="114" width="28" height="28">
<path d="M110.059 127.875C110.059 135.444 116.195 141.58 123.764 141.58C131.333 141.58 137.468 135.444 137.468 127.875C137.468 120.306 131.333 114.171 123.764 114.171C116.195 114.171 110.059 120.306 110.059 127.875Z" fill="white"/>
</mask>
<g mask="url(#mask1_1441_62)">
<path d="M137.468 114.171H110.059V141.58H137.468V114.171Z" fill="#212121"/>
</g>
<path fill-rule="evenodd" clip-rule="evenodd" d="M143.224 127.875V161.198H157.093V127.875C157.093 109.469 142.177 94.553 123.771 94.553C119.341 94.553 115.112 95.4203 111.249 96.9828V112.981C114.632 110.135 119.004 108.415 123.771 108.415C134.515 108.415 143.224 117.124 143.224 127.868" fill="#212121"/>
<mask id="mask2_1441_62" style="mask-type:luminance" maskUnits="userSpaceOnUse" x="111" y="94" width="47" height="68">
<path d="M143.224 127.875V161.198H157.093V127.875C157.093 109.469 142.177 94.553 123.771 94.553C119.341 94.553 115.112 95.4203 111.249 96.9828V112.981C114.632 110.135 119.004 108.415 123.771 108.415C134.515 108.415 143.224 117.124 143.224 127.868" fill="white"/>
</mask>
<g mask="url(#mask2_1441_62)">
<path d="M157.086 94.553H111.242V161.198H157.086V94.553Z" fill="#212121"/>
</g>
<path d="M313.7 193.179C306.838 192.449 301.849 192.084 298.735 192.084C295.62 192.084 293.795 192.181 293.26 192.376C292.773 192.522 292.53 192.863 292.53 193.398C292.53 193.933 292.822 194.347 293.406 194.639C293.99 194.931 295.815 195.418 298.881 196.099C301.995 196.78 304.526 197.462 306.473 198.143C308.468 198.776 310.244 199.7 311.802 200.917C313.408 202.085 314.454 203.545 314.941 205.297C315.476 207 315.744 209.312 315.744 212.232C315.744 218.267 314.138 222.574 310.926 225.153C307.714 227.732 302.871 229.022 296.399 229.022C293.284 229.022 289.999 228.803 286.544 228.365C283.137 227.927 280.509 227.489 278.66 227.051L275.813 226.394L276.543 213.473C283.989 214.544 290.096 215.079 294.866 215.079C297.396 215.079 298.662 214.519 298.662 213.4C298.662 212.913 298.37 212.573 297.786 212.378C297.202 212.135 295.62 211.818 293.041 211.429C286.227 210.358 281.58 208.704 279.098 206.465C276.664 204.178 275.448 200.455 275.448 195.296C275.448 188.726 277.029 184.224 280.193 181.791C283.356 179.358 288.223 178.141 294.793 178.141C299.416 178.141 304.842 178.603 311.072 179.528L314.138 180.039L313.7 193.179ZM318.673 228V179.09H355.319V192.595H335.609V196.756H350.939V210.115H335.609V214.495H355.319V228H318.673ZM399.264 199.238V226.54C390.456 227.951 383.934 228.657 379.7 228.657C375.466 228.657 371.841 228.195 368.823 227.27C365.855 226.297 363.519 224.715 361.815 222.525C360.112 220.335 358.92 217.756 358.238 214.787C357.606 211.818 357.289 208.047 357.289 203.472C357.289 194.079 359.041 187.509 362.545 183.762C366.049 180.015 371.962 178.141 380.284 178.141C382.766 178.141 385.565 178.36 388.679 178.798C391.794 179.187 394.276 179.577 396.125 179.966L398.899 180.623V193.398C391.891 192.765 386.903 192.449 383.934 192.449C381.014 192.449 379.092 192.595 378.167 192.887C377.291 193.13 376.586 193.447 376.05 193.836C375.515 194.177 375.126 194.882 374.882 195.953C374.542 197.462 374.371 200.114 374.371 203.91C374.371 207.706 374.809 210.48 375.685 212.232C376.561 213.935 378.338 214.787 381.014 214.787L383.496 214.714V211.064H381.306L381.233 199.238H399.264ZM420.08 179.09V211.137C420.08 212.548 420.42 213.546 421.102 214.13C421.832 214.714 423.024 215.006 424.679 215.006C426.333 215.006 427.501 214.714 428.183 214.13C428.864 213.546 429.205 212.548 429.205 211.137V179.09H446.141V210.188C446.141 217.099 444.413 221.965 440.958 224.788C437.502 227.562 432.052 228.949 424.606 228.949C417.208 228.949 411.782 227.586 408.327 224.861C404.871 222.136 403.144 217.342 403.144 210.48V179.09H420.08ZM471.298 215.371H467.137V228H450.201V179.09H470.787C478.331 179.09 483.733 180.355 486.993 182.886C490.254 185.368 491.884 190.016 491.884 196.829C491.884 203.594 490.084 208.436 486.482 211.356L491.3 228H474.072L471.298 215.371ZM471.225 202.012C473.61 202.012 474.802 200.43 474.802 197.267C474.802 194.055 473.464 192.449 470.787 192.449H467.064V202.012H471.225ZM495.256 228V179.09H512.192V228H495.256ZM537.96 228H516.571V179.09H537.23C545.65 179.09 551.709 180.988 555.407 184.784C559.106 188.58 560.955 194.663 560.955 203.034C560.955 211.356 559.179 217.61 555.626 221.795C552.074 225.932 546.185 228 537.96 228ZM543.873 203.837C543.873 199.457 543.411 196.537 542.486 195.077C541.61 193.617 539.615 192.887 536.5 192.887H533.507V214.203H536.5C539.031 214.203 540.905 213.57 542.121 212.305C543.289 211.04 543.873 208.217 543.873 203.837ZM560.354 228L571.158 179.09H596.781L607.804 228H590.722L589.335 222.379H578.166L576.998 228H560.354ZM583.13 192.376L580.356 209.458H587.583L584.955 192.376H583.13ZM630.921 228H609.532V179.09H630.191C638.611 179.09 644.67 180.988 648.368 184.784C652.067 188.58 653.916 194.663 653.916 203.034C653.916 211.356 652.14 217.61 648.587 221.795C645.035 225.932 639.146 228 630.921 228ZM636.834 203.837C636.834 199.457 636.372 196.537 635.447 195.077C634.571 193.617 632.576 192.887 629.461 192.887H626.468V214.203H629.461C631.992 214.203 633.866 213.57 635.082 212.305C636.25 211.04 636.834 208.217 636.834 203.837ZM692.179 217.634H689.916V228H672.98V179.09H692.179C699.917 179.09 705.538 180.428 709.042 183.105C712.594 185.782 714.371 190.819 714.371 198.216C714.371 205.565 712.594 210.65 709.042 213.473C705.489 216.247 699.868 217.634 692.179 217.634ZM689.916 204.275H691.449C693.541 204.275 695.026 203.813 695.902 202.888C696.826 201.963 697.289 200.382 697.289 198.143C697.289 195.904 696.851 194.396 695.975 193.617C695.147 192.838 693.639 192.449 691.449 192.449H689.916V204.275ZM738.775 215.371H734.614V228H717.678V179.09H738.264C745.807 179.09 751.209 180.355 754.47 182.886C757.73 185.368 759.361 190.016 759.361 196.829C759.361 203.594 757.56 208.436 753.959 211.356L758.777 228H741.549L738.775 215.371ZM738.702 202.012C741.086 202.012 742.279 200.43 742.279 197.267C742.279 194.055 740.94 192.449 738.264 192.449H734.541V202.012H738.702ZM762.732 228V179.09H779.668V228H762.732ZM825.804 179.09L816.241 228H791.275L781.347 179.09H799.305L803.101 210.918H804.415L807.846 179.09H825.804ZM821.771 228L832.575 179.09H858.198L869.221 228H852.139L850.752 222.379H839.583L838.415 228H821.771ZM844.547 192.376L841.773 209.458H849L846.372 192.376H844.547ZM892.338 228H870.949V179.09H891.608C900.028 179.09 906.087 180.988 909.785 184.784C913.484 188.58 915.333 194.663 915.333 203.034C915.333 211.356 913.557 217.61 910.004 221.795C906.452 225.932 900.563 228 892.338 228ZM898.251 203.837C898.251 199.457 897.789 196.537 896.864 195.077C895.988 193.617 893.993 192.887 890.878 192.887H887.885V214.203H890.878C893.409 214.203 895.283 213.57 896.499 212.305C897.667 211.04 898.251 208.217 898.251 203.837ZM914.732 228L925.536 179.09H951.159L962.182 228H945.1L943.713 222.379H932.544L931.376 228H914.732ZM937.508 192.376L934.734 209.458H941.961L939.333 192.376H937.508Z" fill="#212121"/>
<path d="M278.417 67.85H322.352C346.036 67.85 357.877 75.8733 357.877 91.92C357.877 98.01 357.201 102.698 355.847 105.985C354.591 109.272 351.932 112.365 347.872 115.265C352.609 117.295 355.847 119.808 357.587 122.805C359.424 125.705 360.342 130.587 360.342 137.45C360.342 155.817 347.872 165 322.932 165H278.417V67.85ZM319.887 126.575H312.057V142.525H319.887C323.271 142.525 325.542 141.993 326.702 140.93C327.862 139.77 328.442 137.692 328.442 134.695C328.442 131.602 327.814 129.475 326.557 128.315C325.301 127.155 323.077 126.575 319.887 126.575ZM319.452 90.035H312.057V105.55H319.597C322.497 105.55 324.527 104.922 325.687 103.665C326.847 102.408 327.427 100.427 327.427 97.72C327.427 94.9167 326.799 92.935 325.542 91.775C324.286 90.615 322.256 90.035 319.452 90.035ZM431.744 165H366.494V67.85H400.134V137.595H431.744V165ZM469.363 67.85V131.505C469.363 134.308 470.04 136.29 471.393 137.45C472.843 138.61 475.211 139.19 478.498 139.19C481.785 139.19 484.105 138.61 485.458 137.45C486.811 136.29 487.488 134.308 487.488 131.505V67.85H521.128V129.62C521.128 143.347 517.696 153.013 510.833 158.62C503.97 164.13 493.143 166.885 478.353 166.885C463.66 166.885 452.881 164.178 446.018 158.765C439.155 153.352 435.723 143.83 435.723 130.2V67.85H469.363ZM529.194 165V67.85H562.254L584.584 104.68H586.614V67.85H620.254V165H587.049L565.009 125.415H562.834V165H529.194ZM662.663 132.665V165H629.023V67.85H662.663V102.215H668.463L679.338 67.85H712.688L697.173 114.83L714.138 165H680.353L668.608 132.665H662.663ZM717.382 165V67.85H790.172V94.675H751.022V102.94H781.472V129.475H751.022V138.175H790.172V165H717.382ZM838.867 139.915H830.602V165H796.962V67.85H837.852C852.836 67.85 863.566 70.3633 870.042 75.39C876.519 80.32 879.757 89.5517 879.757 103.085C879.757 116.522 876.181 126.14 869.027 131.94L878.597 165H844.377L838.867 139.915ZM838.722 113.38C843.459 113.38 845.827 110.238 845.827 103.955C845.827 97.575 843.169 94.385 837.852 94.385H830.457V113.38H838.722ZM960.404 95.835C946.774 94.385 936.866 93.66 930.679 93.66C924.493 93.66 920.868 93.8533 919.804 94.24C918.838 94.53 918.354 95.2067 918.354 96.27C918.354 97.3333 918.934 98.155 920.094 98.735C921.254 99.315 924.879 100.282 930.969 101.635C937.156 102.988 942.183 104.342 946.049 105.695C950.013 106.952 953.541 108.788 956.634 111.205C959.824 113.525 961.903 116.425 962.869 119.905C963.933 123.288 964.464 127.88 964.464 133.68C964.464 145.667 961.274 154.222 954.894 159.345C948.514 164.468 938.896 167.03 926.039 167.03C919.853 167.03 913.328 166.595 906.464 165.725C899.698 164.855 894.478 163.985 890.804 163.115L885.149 161.81L886.599 136.145C901.389 138.272 913.521 139.335 922.994 139.335C928.021 139.335 930.534 138.223 930.534 136C930.534 135.033 929.954 134.357 928.794 133.97C927.634 133.487 924.493 132.858 919.369 132.085C905.836 129.958 896.604 126.672 891.674 122.225C886.841 117.682 884.424 110.287 884.424 100.04C884.424 86.99 887.566 78.0483 893.849 73.215C900.133 68.3817 909.799 65.965 922.849 65.965C932.033 65.965 942.811 66.8833 955.184 68.72L961.274 69.735L960.404 95.835Z" fill="#212121"/>
</svg>
